<svg width="174" height="174" viewBox="0 0 174 174" fill="none" xmlns="http://www.w3.org/2000/svg">
<path d="M152.25 72.5V78.5C155.564 78.5 158.25 75.8137 158.25 72.5H152.25ZM152.25 101.5H158.25C158.25 98.1863 155.564 95.5 152.25 95.5V101.5ZM21.75 101.5V95.5C18.4363 95.5 15.75 98.1863 15.75 101.5H21.75ZM21.75 72.5H15.75C15.75 75.8137 18.4363 78.5 21.75 78.5V72.5ZM23.75 30.25C19.3317 30.25 15.75 33.8317 15.75 38.25H27.75C27.75 40.4591 25.9592 42.25 23.75 42.25V30.25ZM150.25 30.25H23.75V42.25H150.25V30.25ZM158.25 38.25C158.25 33.8317 154.668 30.25 150.25 30.25V42.25C148.041 42.25 146.25 40.4591 146.25 38.25H158.25ZM158.25 72.5V38.25H146.25V72.5H158.25ZM143.75 87C143.75 82.3056 147.556 78.5 152.25 78.5V66.5C140.928 66.5 131.75 75.6782 131.75 87H143.75ZM152.25 95.5C147.556 95.5 143.75 91.6944 143.75 87H131.75C131.75 98.3218 140.928 107.5 152.25 107.5V95.5ZM158.25 135.75V101.5H146.25V135.75H158.25ZM150.25 143.75C154.668 143.75 158.25 140.168 158.25 135.75H146.25C146.25 133.541 148.041 131.75 150.25 131.75V143.75ZM23.75 143.75H150.25V131.75H23.75V143.75ZM15.75 135.75C15.75 140.168 19.3317 143.75 23.75 143.75V131.75C25.9591 131.75 27.75 133.541 27.75 135.75H15.75ZM15.75 101.5V135.75H27.75V101.5H15.75ZM30.25 87C30.25 91.6944 26.4444 95.5 21.75 95.5V107.5C33.0718 107.5 42.25 98.3218 42.25 87H30.25ZM21.75 78.5C26.4444 78.5 30.25 82.3056 30.25 87H42.25C42.25 75.6782 33.0718 66.5 21.75 66.5V78.5ZM15.75 38.25V72.5H27.75V38.25H15.75Z" fill="#E5E7EB"/>
<path d="M152.25 72.5V78.5C155.564 78.5 158.25 75.8137 158.25 72.5H152.25ZM152.25 101.5H158.25C158.25 98.1863 155.564 95.5 152.25 95.5V101.5ZM21.75 101.5V95.5C18.4363 95.5 15.75 98.1863 15.75 101.5H21.75ZM21.75 72.5H15.75C15.75 75.8137 18.4363 78.5 21.75 78.5V72.5ZM23.75 30.25C19.3317 30.25 15.75 33.8317 15.75 38.25H27.75C27.75 40.4591 25.9592 42.25 23.75 42.25V30.25ZM150.25 30.25H23.75V42.25H150.25V30.25ZM158.25 38.25C158.25 33.8317 154.668 30.25 150.25 30.25V42.25C148.041 42.25 146.25 40.4591 146.25 38.25H158.25ZM158.25 72.5V38.25H146.25V72.5H158.25ZM143.75 87C143.75 82.3056 147.556 78.5 152.25 78.5V66.5C140.928 66.5 131.75 75.6782 131.75 87H143.75ZM152.25 95.5C147.556 95.5 143.75 91.6944 143.75 87H131.75C131.75 98.3218 140.928 107.5 152.25 107.5V95.5ZM158.25 135.75V101.5H146.25V135.75H158.25ZM150.25 143.75C154.668 143.75 158.25 140.168 158.25 135.75H146.25C146.25 133.541 148.041 131.75 150.25 131.75V143.75ZM23.75 143.75H150.25V131.75H23.75V143.75ZM15.75 135.75C15.75 140.168 19.3317 143.75 23.75 143.75V131.75C25.9591 131.75 27.75 133.541 27.75 135.75H15.75ZM15.75 101.5V135.75H27.75V101.5H15.75ZM30.25 87C30.25 91.6944 26.4444 95.5 21.75 95.5V107.5C33.0718 107.5 42.25 98.3218 42.25 87H30.25ZM21.75 78.5C26.4444 78.5 30.25 82.3056 30.25 87H42.25C42.25 75.6782 33.0718 66.5 21.75 66.5V78.5ZM15.75 38.25V72.5H27.75V38.25H15.75Z" fill="#E5E7EB"/>
<path d="M108.75 36.25V50.75" stroke="#E5E7EB" stroke-width="12" stroke-linecap="round"/>
<path d="M108.75 79.75V94.25" stroke="#E5E7EB" stroke-width="12" stroke-linecap="round" stroke-linejoin="round"/>
<path d="M108.75 123.25V137.75" stroke="#E5E7EB" stroke-width="12" stroke-linecap="round" stroke-linejoin="round"/>
</svg>
